<svg width="19" height="18" viewBox="0 0 19 18" fill="none" xmlns="http://www.w3.org/2000/svg" role="img" aria-label="Иконка корзины (большая)."><path fill-rule="evenodd" clip-rule="evenodd" d="M4.12 1.802c-.16 0-.313.018-.459.052a3.91 3.91 0 0 0-.763-1.14C2.388.202 1.585 0 .474 0v1.8c.679 0 1.07.098 1.157.186.339.34.634 1.032.634 1.614l.009.127L3.15 9.9C1.683 9.977.545 11.123.475 12.555l-.001.945c.086 1.48 1.22 2.618 2.635 2.698h.204A2.689 2.689 0 0 0 5.847 18c1.17 0 2.164-.751 2.533-1.8h2.097a2.689 2.689 0 0 0 2.534 1.8 2.693 2.693 0 0 0 2.686-2.7c0-1.491-1.203-2.7-2.686-2.7-1.17 0-2.165.751-2.534 1.8H8.38a2.689 2.689 0 0 0-2.533-1.8c-1.17 0-2.165.751-2.534 1.8H3.16c-.457-.027-.866-.439-.897-.954l.002-.846c.024-.467.43-.876.94-.901h1.767l.013.001h9.026l.132-.042a2.355 2.355 0 0 0 1.48-1.396l.094-.187.307-.61.943-1.884a140.933 140.933 0 0 0 1.338-2.713c.542-1.214-.555-2.148-1.676-2.168L4.12 1.802ZM13.7 9.9H5.052a.153.153 0 0 1-.11-.126l-.877-6.173 12.432.894c-.217.446-.613 1.243-1.13 2.278l-.013.026-.93 1.855-.306.61-.116.23-.043.102a.562.562 0 0 1-.26.304Zm-.69 6.3a.898.898 0 0 0 .896-.9c0-.497-.4-.9-.895-.9a.898.898 0 0 0-.896.9c0 .497.401.9.896.9Zm-6.268-.9c0 .497-.4.9-.895.9a.898.898 0 0 1-.896-.9c0-.497.401-.9.896-.9.494 0 .895.403.895.9Z" fill="rgba(255, 255, 255, 0.6)"/></svg>