<svg width="17" height="16" viewBox="0 0 17 16" fill="none" xmlns="http://www.w3.org/2000/svg" role="img" aria-label="Иконка телефонной трубки."><path fill-rule="evenodd" clip-rule="evenodd" d="M7.53 5.07c.414-.558.562-1.147.094-1.667-1.05-1.471-1.757-2.382-2.2-2.82-.842-.834-2.228-.72-2.958 0-.392.386-.524.519-.927.928C-.702 3.757.665 8.504 4.3 12.147c3.632 3.641 8.372 5.01 10.618 2.76.372-.358.686-.673.934-.936.715-.757.823-2.083-.005-2.945-.424-.442-1.291-1.115-2.823-2.212-.469-.42-1.025-.33-1.535.006-.245.16-.424.324-.761.662l-.612.613c-.08.08-1.176-.468-2.238-1.533-1.064-1.066-1.611-2.163-1.531-2.243l.612-.614c.107-.107.158-.159.224-.228.137-.144.25-.274.348-.407Zm3.714 6.156.612-.613c.186-.186.306-.3.404-.38 1.341.966 2.119 1.572 2.436 1.903.19.198.161.56-.005.735-.229.243-.527.541-.892.894-1.453 1.455-5.28.35-8.371-2.75-3.093-3.1-4.197-6.933-2.756-8.377.401-.408.528-.535.915-.916.144-.143.539-.175.715 0 .341.337.974 1.148 1.905 2.447a3.38 3.38 0 0 1-.182.205 10.63 10.63 0 0 1-.196.2l-.612.613c-1.041 1.043-.154 2.817 1.53 4.506 1.684 1.687 3.456 2.576 4.497 1.533ZM9.765.056a7.598 7.598 0 0 1 6.611 6.62l-1.578.263a5.998 5.998 0 0 0-5.296-5.303l.263-1.58ZM9.24 3.218a4.398 4.398 0 0 1 3.98 3.985l-1.583.264a2.798 2.798 0 0 0-2.66-2.664l.263-1.585Z" fill="#293449"/></svg>