<svg width="503" height="487" viewBox="0 0 503 487" fill="none" xmlns="http://www.w3.org/2000/svg" role="img" aria-label="Мелкие иконки сайта."><path fill="transparent" d="M0 0h503v487H0z"/><path d="m71.23 53.69.2-2.19h-.13l-1.12 2.26L63.9 63h-2.47V46.2h3.29v9.14l-.24 2.26h.14l1.18-2.33 6.26-9.07h2.45V63h-3.29v-9.31Zm10.35 2.13h-.87V63h-3.29V46.2h3.3v7.44l.76-.34 4.63-7.1h3.75l-4.9 7.06-1.3.9 1.35.94L90.6 63h-4.06l-4.96-7.18Zm9.57-1.22c0-2.8.61-4.95 1.84-6.46 1.24-1.52 3-2.28 5.28-2.28 1.2 0 2.25.21 3.15.63.9.41 1.64 1 2.23 1.77.6.77 1.03 1.7 1.32 2.76.29 1.08.43 2.27.43 3.58 0 2.8-.62 4.96-1.87 6.48-1.23 1.5-2.98 2.26-5.26 2.26-1.21 0-2.27-.21-3.16-.63-.9-.41-1.64-1-2.24-1.77-.57-.77-1-1.7-1.3-2.76a13.78 13.78 0 0 1-.42-3.58Zm3.45 0a12 12 0 0 0 .22 2.35c.14.7.36 1.31.65 1.83a3.08 3.08 0 0 0 2.8 1.63c1.17 0 2.08-.46 2.72-1.37.64-.91.96-2.4.96-4.44 0-.82-.08-1.58-.22-2.28a6.13 6.13 0 0 0-.62-1.85 3.04 3.04 0 0 0-2.83-1.68c-1.17 0-2.08.47-2.72 1.42-.64.93-.96 2.39-.96 4.39Zm22.59 1.37h-6.15V63h-3.29V46.2h3.3v6.84h6.14V46.2h3.28V63h-3.28v-7.03Zm10.35-.15h-.87V63h-3.28V46.2h3.28v7.44l.77-.34 4.63-7.1h3.75l-4.9 7.06-1.3.9 1.35.94 5.6 7.9h-4.06l-4.97-7.18Zm20.52-2.13.2-2.19h-.13L147 53.76 140.74 63h-2.47V46.2h3.29v9.14l-.24 2.26h.14l1.18-2.33 6.26-9.07h2.45V63h-3.29v-9.31Z" fill="#000"/><path fill-rule="evenodd" clip-rule="evenodd" d="m67 142 7-3.4 7 3.4v-18.06c0-1.07-.9-1.94-2-1.94H69c-1.1 0-2 .87-2 1.94V142Zm7-5.56-5 2.42v-14.92h10v14.92l-5-2.42ZM106.06 124c-.18 0-.35.02-.51.06-.22-.5-.52-.93-.85-1.27-.57-.57-1.46-.79-2.7-.79v2c.76 0 1.2.1 1.29.2.38.38.7 1.15.7 1.8l.01.14.98 6.86a3.11 3.11 0 0 0-2.98 2.95V137a3.14 3.14 0 0 0 2.93 3h.23a3 3 0 0 0 5.64 0h2.33a2.99 2.99 0 0 0 5.8-1 3 3 0 0 0-5.8-1h-2.33a3 3 0 0 0-5.64 0h-.17c-.5-.03-.96-.49-1-1.06V136a1.1 1.1 0 0 1 1.05-1h12.02l.15-.05a2.62 2.62 0 0 0 1.65-1.55l.1-.2.34-.68 1.05-2.1 1.5-3.01c.6-1.35-.63-2.39-1.87-2.41l-13.92-1Zm10.66 9h-9.63a.17.17 0 0 1-.12-.14L106 126l13.83 1-1.26 2.53-.01.03-1.04 2.06-.34.67-.13.26-.05.11a.62.62 0 0 1-.28.34Zm-.77 7a1 1 0 1 0 0-2 1 1 0 0 0 0 2Zm-6.98-1a1 1 0 1 1-2 0 1 1 0 0 1 2 0ZM153.25 124.25h6.5v15.5h-6.5v2h8.5v-19.5h-8.5v2Zm-5.7 2.2 4.47 4.49H142v2h10.02l-4.48 4.48 1.42 1.41 6.18-6.19.71-.7-.7-.71-6.2-6.19-1.4 1.42ZM190.86 128.34c.52-.7.7-1.44.12-2.09a31.77 31.77 0 0 0-2.75-3.52 2.72 2.72 0 0 0-3.7 0c-.5.48-.66.65-1.17 1.16-2.8 2.8-1.1 8.74 3.46 13.3 4.54 4.55 10.48 6.26 13.29 3.44.46-.44.86-.84 1.17-1.17a2.7 2.7 0 0 0 0-3.68c-.54-.55-1.63-1.4-3.54-2.76-.59-.53-1.29-.41-1.92 0-.31.2-.53.41-.96.83l-.76.77c-.1.1-1.47-.59-2.8-1.92-1.34-1.33-2.02-2.7-1.92-2.8l.77-.77a12.59 12.59 0 0 0 .71-.8Zm4.65 7.7.77-.77c.23-.24.38-.38.5-.48a27.95 27.95 0 0 1 3.05 2.38c.24.25.2.7 0 .92l-1.12 1.12c-1.82 1.82-6.6.43-10.48-3.44-3.87-3.88-5.25-8.67-3.45-10.47l1.15-1.15c.18-.18.67-.22.9 0 .42.42 1.21 1.44 2.38 3.06a4.24 4.24 0 0 1-.48.5l-.76.77c-1.3 1.3-.2 3.53 1.91 5.64 2.1 2.1 4.33 3.22 5.63 1.91Zm-1.85-13.97a9.5 9.5 0 0 1 8.28 8.28l-1.98.32a7.5 7.5 0 0 0-6.63-6.62l.33-1.98Zm-.66 3.95a5.5 5.5 0 0 1 4.98 4.98l-1.98.33a3.5 3.5 0 0 0-3.33-3.33l.33-1.98ZM230 138a8 8 0 1 1 6.32-3.1l5.39 5.4-1.42 1.4-5.38-5.38A7.97 7.97 0 0 1 230 138Zm6-8a6 6 0 1 1-12 0 6 6 0 0 1 12 0Z" fill="#000"/><path d="M353.76 134.68c.64-.21 1.45 1.35 2.32 1.95.66.46 1.16.36 1.16.36l2.31-.03s1.21-.08.64-1.04c-.05-.08-.34-.71-1.73-2.01-1.45-1.37-1.25-1.15.5-3.5 1.06-1.44 1.49-2.31 1.36-2.69-.13-.36-.92-.26-.92-.26l-2.6.02c-.26 0-.47.08-.57.34 0 0-.42 1.1-.97 2.05-1.16 2-1.62 2.1-1.81 1.98-.44-.3-.33-1.16-.33-1.78 0-1.93.29-2.74-.56-2.95-.29-.06-.5-.11-1.22-.12-.93-.01-1.72 0-2.17.22-.3.15-.52.48-.38.5.17.02.56.1.77.39.26.36.26 1.19.26 1.19s.15 2.27-.36 2.56c-.36.19-.84-.2-1.87-2.02-.53-.92-.93-1.94-.93-1.94s-.08-.2-.22-.3c-.17-.12-.4-.16-.4-.16l-2.48.02s-.37 0-.5.17c-.13.15-.01.45-.01.45s1.94 4.58 4.13 6.9c2.02 2.12 4.3 1.98 4.3 1.98h1.04s.31-.04.48-.21c.14-.16.14-.46.14-.46s-.02-1.4.62-1.61Z" fill="#000"/><path fill-rule="evenodd" clip-rule="evenodd" d="M153 189a11 11 0 1 1 0-22 11 11 0 0 1 0 22Zm0-2a9 9 0 1 0 0-18 9 9 0 0 0 0 18Zm-3.3-4.3 3.3-3.29 3.3 3.3 1.4-1.42-3.29-3.29 3.3-3.3-1.42-1.4-3.29 3.29-3.3-3.3-1.4 1.42 3.29 3.29-3.3 3.3 1.42 1.4Z" fill="#000"/><path fill-rule="evenodd" clip-rule="evenodd" d="m271 225.4-5.6 5.6-2.4-2.4 5.6-5.6-5.6-5.6 2.4-2.4 5.6 5.6 5.6-5.6 2.4 2.4-5.6 5.6 5.6 5.6-2.4 2.4-5.6-5.6Z" fill="#32425c"/><path fill-rule="evenodd" clip-rule="evenodd" d="M275 189a11 11 0 1 1 0-22 11 11 0 0 1 0 22Zm0-2a9 9 0 1 0 0-18 9 9 0 0 0 0 18Zm1-3.34V179h4.66v-2H276v-4.66h-2V177h-4.66v2H274v4.66h2ZM317 189a11 11 0 1 1 0-22 11 11 0 0 1 0 22Zm0-2a9 9 0 1 0 0-18 9 9 0 0 0 0 18Zm0-8h5.66v-2h-11.32v2H317Z" fill="#000"/><g clip-path="url(#a)" fill="#"><path d="M367.49 171.51h-5.83v-.68a2.73 2.73 0 0 0-2.72-2.72h-1.43a2.73 2.73 0 0 0-2.72 2.72v.68h-5.85a.83.83 0 0 0 0 1.66h1.14l1.03 12.3a2.66 2.66 0 0 0 2.63 2.42h8.92a2.66 2.66 0 0 0 2.64-2.42l1.02-12.3h1.15c.44 0 .83-.36.83-.83a.8.8 0 0 0-.81-.83Zm-11.06-.68c0-.6.49-1.06 1.08-1.06h1.43c.6 0 1.08.48 1.08 1.06v.68h-3.6v-.68Zm7.23 14.49c-.04.51-.49.91-1 .91h-8.9c-.5 0-.95-.4-1-.91l-1.01-12.15h12.91l-1 12.15Z"/><path d="M356.02 184.2c.45 0 .83-.37.83-.84v-7.32a.83.83 0 0 0-1.66 0v7.34c0 .45.36.81.83.81ZM360.4 184.2c.45 0 .83-.37.83-.84v-7.32a.83.83 0 0 0-1.66 0v7.34c.03.45.39.81.83.81Z"/></g><path fill-rule="evenodd" clip-rule="evenodd" d="m402.38 173 1.84 3.69 2.78 1.84V182h-1.17a3 3 0 0 0-5.66 0h-4.34a3 3 0 0 0-5.66 0H389v-9h13.38Zm4.62 11h-1.17a3 3 0 0 1-5.66 0h-4.34a3 3 0 0 1-5.66 0H389a2 2 0 0 1-2-2v-9c0-1.1.9-2 2-2h13.38a2 2 0 0 1 1.8 1.1l1.6 3.22 3.22 2.15V182a2 2 0 0 1-2 2Zm-13-1a1 1 0 1 1-2 0 1 1 0 0 1 2 0Zm10 0a1 1 0 1 1-2 0 1 1 0 0 1 2 0ZM194 188a10 10 0 1 1 0-20 10 10 0 0 1 0 20Zm6.73-5.34a8.18 8.18 0 1 0-13.45 0c1.02-1.35 3.42-1.93 6.72-1.93-2.04 0-3.64-1.43-3.64-4.55a3.5 3.5 0 0 1 3.64-3.64c2.2 0 3.64 1.75 3.64 3.82 0 2.98-1.62 4.37-3.64 4.37 3.3 0 5.7.58 6.73 1.93Zm-1.3 1.47c-.27-.96-2.19-1.59-5.43-1.59-3.25 0-5.16.63-5.42 1.59a8.15 8.15 0 0 0 10.84 0Zm-7.25-7.95c0 2.06.75 2.73 1.82 2.73s1.82-.64 1.82-2.55c0-1.13-.72-2-1.82-2-1.15 0-1.82.74-1.82 1.82ZM106.49 176.35l5.51-5.51 5.51 5.5v9.19h-11.02v-9.18Zm-1.84 1.83-1.35 1.36-1.3-1.3 8.7-8.7a1.84 1.84 0 0 1 2.6 0l8.7 8.7-1.3 1.3-1.35-1.36v7.35c0 1.01-.83 1.84-1.84 1.84h-11.02a1.84 1.84 0 0 1-1.84-1.84v-7.35Z" fill="#000"/><circle cx="184" cy="297" r="9" fill="#fff" stroke="#242424" stroke-width="2"/><path fill-rule="evenodd" clip-rule="evenodd" d="M80 287H64a2 2 0 0 0-2 2v16c0 1.1.9 2 2 2h16a2 2 0 0 0 2-2v-16a2 2 0 0 0-2-2Zm-16 18v-16h16v16H64Z" fill="#3D546F"/><path fill="#fff" d="M116 287h20v20h-20z"/><path fill-rule="evenodd" clip-rule="evenodd" d="m125.7 297.59 4.3-4.3 1.41 1.42-5.7 5.7-3.71-3.7 1.41-1.42 2.3 2.3Z" fill="#3D546F"/><path fill-rule="evenodd" clip-rule="evenodd" d="M134 287h-16a2 2 0 0 0-2 2v16c0 1.1.9 2 2 2h16a2 2 0 0 0 2-2v-16a2 2 0 0 0-2-2Zm-16 18v-16h16v16h-16ZM281 298a11 11 0 1 0 22 0 11 11 0 0 0-22 0Zm20 0a9 9 0 1 1-18 0 9 9 0 0 1 18 0Z" fill="#3D546F"/><circle cx="292" cy="298" r="4" fill="#3D546F"/><path fill-rule="evenodd" clip-rule="evenodd" d="M225 297a11 11 0 1 0 22 0 11 11 0 0 0-22 0Zm20 0a9 9 0 1 1-18 0 9 9 0 0 1 18 0Z" fill="#3D546F"/><path fill-rule="evenodd" clip-rule="evenodd" d="M232.75 185.75h-6.5v-15.5h6.5v-2h-8.5v19.5h8.5v-2Zm5.7-2.2-4.47-4.49H244v-2h-10.02l4.48-4.48-1.42-1.41-6.18 6.19-.71.7.7.71 6.2 6.19 1.4-1.42ZM77.3 222.7l-7.3-7.29 1.41-1.41 8.71 8.7-8.7 8.71L70 230l7.3-7.3ZM119.83 222.7l7.3 7.3-1.42 1.41-8.71-8.7 8.7-8.71 1.42 1.41-7.3 7.3ZM73 189.33l.66-.58C79.19 183.92 82 179.71 82 176c0-5.25-4.1-9-9-9s-9 3.75-9 9c0 3.7 2.81 7.92 8.34 12.75l.66.58Zm0-2.67c-4.7-4.23-7-7.81-7-10.66 0-4.1 3.16-7 7-7s7 2.9 7 7c0 2.85-2.3 6.43-7 10.66ZM73 171a5 5 0 1 1 0 10 5 5 0 0 1 0-10Zm-3 5a3 3 0 1 1 6 0 3 3 0 0 1-6 0Z" fill="#000"/><path fill-rule="evenodd" clip-rule="evenodd" d="m163.03 223-5.03-5.03.97-.97 6 6-6 6-.97-.97 5.03-5.03ZM235 219l1.41 1.41-4.7 4.71-4.71-4.7 1.41-1.42 3.3 3.3L235 219ZM192.41 225.12l-1.41-1.41 4.7-4.71 4.71 4.7-1.41 1.42-3.3-3.3-3.29 3.3Z" fill="#3D546F"/><g clip-path="url(#b)" stroke="#fff" stroke-width="2" stroke-linecap="round"><circle opacity=".24" cx="333" cy="295" r="7" stroke-opacity=".7"/><path d="M340 295a7 7 0 0 0-7-7"/></g><path fill-rule="evenodd" clip-rule="evenodd" d="M80.13 350.21c9.4 0 17.03 7.45 17.03 16.64 0 9.19-7.63 16.64-17.03 16.64-9.4 0-17.02-7.45-17.02-16.64 0-9.19 7.62-16.64 17.02-16.64Z" fill="transparent"/><path d="M81.76 369.68c.64-.21 1.45 1.36 2.32 1.95.66.46 1.15.36 1.15.36l2.32-.03s1.21-.08.64-1.04c-.05-.08-.34-.71-1.73-2.01-1.45-1.37-1.25-1.15.5-3.5 1.06-1.44 1.49-2.31 1.36-2.69-.13-.36-.91-.26-.91-.26l-2.61.02c-.26 0-.47.07-.57.34 0 0-.42 1.1-.97 2.05-1.16 2-1.62 2.1-1.81 1.98-.44-.3-.33-1.16-.33-1.78 0-1.93.29-2.74-.56-2.95-.29-.06-.5-.11-1.22-.12-.93-.01-1.72 0-2.17.22-.3.15-.52.48-.38.5.17.02.56.1.77.39.26.37.26 1.19.26 1.19s.15 2.27-.36 2.56c-.36.19-.84-.2-1.87-2.01-.53-.93-.93-1.95-.93-1.95s-.08-.2-.22-.3c-.16-.12-.4-.16-.4-.16l-2.47.02s-.38 0-.51.17c-.12.15-.01.45-.01.45s1.94 4.58 4.13 6.9c2.02 2.12 4.3 1.98 4.3 1.98h1.04s.31-.04.47-.21c.15-.16.15-.46.15-.46s-.02-1.4.62-1.62Z" fill="#fff"/><g filter="url(#c)"><path fill-rule="evenodd" clip-rule="evenodd" d="M235.29 373.3c-.29-.35-.63-1.08-1.25-1.98-.34-.5-1.2-1.45-1.47-1.93-.22-.43-.2-.62-.14-.97.1-.63.74-1.12 1.42-1.05.52.05.96.4 1.36.71.24.2.53.58.7.8.17.19.21.27.39.5.23.3.3.46.21.12-.07-.5-.19-1.34-.35-2.09-.13-.57-.16-.66-.29-1.1-.13-.46-.2-.78-.31-1.27-.09-.35-.24-1.06-.28-1.46-.06-.55-.09-1.44.27-1.85.27-.32.9-.42 1.3-.22.5.26.8 1 .93 1.3.24.53.39 1.15.51 1.96.17 1.03.47 2.46.48 2.76.02-.37-.07-1.14 0-1.5.05-.32.32-.7.66-.8.29-.08.62-.1.92-.05.31.07.64.3.77.5.36.63.36 1.9.38 1.83.09-.37.07-1.23.28-1.58.14-.24.5-.45.69-.48.3-.05.66-.07.96 0 .25.04.59.34.68.48.22.34.34 1.32.38 1.66.01.14.07-.4.3-.74.4-.64 1.84-.76 1.9.64.02.65.01.62.01 1.06a14.62 14.62 0 0 1-.28 2.95c-.09.3-.37.98-.65 1.38 0 0-1.08 1.25-1.2 1.81-.11.57-.07.57-.1.97-.02.4.13.92.13.92s-.8.1-1.24.04c-.39-.07-.87-.84-1-1.08-.17-.33-.54-.27-.68-.03-.23.39-.71 1.07-1.05 1.12-.67.08-2.06.03-3.14.02 0 0 .18-1.01-.23-1.36-.3-.26-.83-.78-1.14-1.06l-.83-.92Z" fill="#fff"/><path clip-rule="evenodd" d="M235.29 373.3c-.29-.35-.63-1.08-1.25-1.98-.34-.5-1.2-1.45-1.47-1.93-.22-.43-.2-.62-.14-.97.1-.63.74-1.12 1.42-1.05.52.05.96.4 1.36.71.24.2.53.58.7.8.17.19.21.27.39.5.23.3.3.46.21.12-.07-.5-.19-1.34-.35-2.09-.13-.57-.16-.66-.29-1.1-.13-.46-.2-.78-.31-1.27-.09-.35-.24-1.06-.28-1.46-.06-.55-.09-1.44.27-1.85.27-.32.9-.42 1.3-.22.5.26.8 1 .93 1.3.24.53.39 1.15.51 1.96.17 1.03.47 2.46.48 2.76.02-.37-.07-1.14 0-1.5.05-.32.32-.7.66-.8.29-.08.62-.1.92-.05.31.07.64.3.77.5.36.63.36 1.9.38 1.83.09-.37.07-1.23.28-1.58.14-.24.5-.45.69-.48.3-.05.66-.07.96 0 .25.04.59.34.68.48.22.34.34 1.32.38 1.66.01.14.07-.4.3-.74.4-.64 1.84-.76 1.9.64.02.65.01.62.01 1.06a14.62 14.62 0 0 1-.28 2.95c-.09.3-.37.98-.65 1.38 0 0-1.08 1.25-1.2 1.81-.11.57-.07.57-.1.97-.02.4.13.92.13.92s-.8.1-1.24.04c-.39-.07-.87-.84-1-1.08-.17-.33-.54-.27-.68-.03-.23.39-.71 1.07-1.05 1.12-.67.08-2.06.03-3.14.02 0 0 .18-1.01-.23-1.36-.3-.26-.83-.78-1.14-1.06l-.83-.92Z" stroke="#000" stroke-width=".75" stroke-linecap="round" stroke-linejoin="round"/><path d="M243.52 373.66v-3.46M241.5 373.68l-.01-3.48M239.5 370.23l.03 3.43" stroke="#000" stroke-width=".75" stroke-linecap="round"/></g><path fill-rule="evenodd" clip-rule="evenodd" d="M308 229a6 6 0 1 0 0-12 6 6 0 0 0 0 12Zm.68-2.15c.1-.1.14-.2.14-.34v-4.13a.47.47 0 0 0-.14-.34.47.47 0 0 0-.35-.15h-.66a.47.47 0 0 0-.35.15c-.1.1-.14.21-.14.34v4.13c0 .13.05.25.14.34.1.1.22.15.35.15h.66c.13 0 .25-.05.35-.15Zm.18-5.98c.1-.1.14-.21.14-.34v-1.04a.47.47 0 0 0-.14-.34.46.46 0 0 0-.35-.15h-1.02a.46.46 0 0 0-.35.15c-.1.1-.14.2-.14.34v1.03c0 .14.05.25.14.35.1.1.21.14.35.14h1.02c.14 0 .25-.04.35-.14Z" fill="#242424"/><path d="M294 380a15 15 0 1 0 0-30 15 15 0 0 0 0 30Z" fill="#63A63E"/><path d="M301.56 359.58a.46.46 0 0 0-.64 0l-8.38 8.38a.46.46 0 0 1-.64 0l-3.7-3.7a.45.45 0 0 0-.64 0l-1.61 1.6a.45.45 0 0 0 0 .65l5.95 5.95c.18.17.46.17.64 0l1.6-1.61.65-.64 8.38-8.38a.46.46 0 0 0 0-.65l-1.6-1.6Z" fill="#fff"/><defs><clipPath id="a"><path fill="#fff" transform="translate(348 168)" d="M0 0h20.43v20H0z"/></clipPath><clipPath id="b"><path fill="#fff" transform="translate(325 287)" d="M0 0h16v16H0z"/></clipPath><filter id="c" x="229" y="359" width="22" height="22.05" filterUnits="userSpaceOnUse" color-interpolation-filters="sRGB"><feFlood flood-opacity="0" result="BackgroundImageFix"/><feColorMatrix in="SourceAlpha" values="0 0 0 0 0 0 0 0 0 0 0 0 0 0 0 0 0 0 127 0" result="hardAlpha"/><feOffset dy="1"/><feGaussianBlur stdDeviation="1.5"/><feColorMatrix values="0 0 0 0 0 0 0 0 0 0 0 0 0 0 0 0 0 0 0.35 0"/><feBlend in2="BackgroundImageFix" result="effect1_dropShadow_850_8486"/><feBlend in="SourceGraphic" in2="effect1_dropShadow_850_8486" result="shape"/></filter></defs></svg>