<svg width="111" height="21" viewBox="0 0 111 21" fill="none" xmlns="http://www.w3.org/2000/svg" role="img" aria-label="Крупный текст логотипа Техномарт."><path fill-rule="evenodd" clip-rule="evenodd" d="M106.227 2.274v17.624h-2.158V2.274h-3.836V.316h9.831v1.958h-3.837Zm-8.308 10.364c-.376.55-.847.942-1.415 1.175-.567.233-1.243.35-2.026.35-.368 0-.783-.028-1.247-.084a9.953 9.953 0 0 1-1.15-.196v6.015h-2.159V.595a9.906 9.906 0 0 1 1.835-.433 14.856 14.856 0 0 1 2.002-.126c.959 0 1.774.117 2.445.35.672.233 1.215.62 1.631 1.16.416.541.72 1.26.911 2.155.192.895.288 2.004.288 3.329 0 1.36-.092 2.499-.276 3.412-.184.914-.463 1.646-.84 2.196Zm-1.223-8.126c-.12-.672-.308-1.203-.563-1.595-.256-.391-.58-.666-.972-.825-.391-.158-.859-.238-1.402-.238H92.08v10.35h1.679c.543 0 1.01-.079 1.402-.237.392-.159.716-.434.972-.825.255-.392.443-.923.563-1.595.12-.671.18-1.51.18-2.517 0-1.008-.06-1.847-.18-2.518Zm-12.169 10.35h-4.795l-1.08 5.036h-2.157L80.57.316h3.117l4.076 19.582h-2.158l-1.079-5.036Zm-2.35-11.749h-.095l-1.99 9.791h4.076l-1.99-9.79ZM71.82 5.351h-.12L68.222 17.38h-2.158L62.588 5.351h-.12l-.72 14.547H59.59L60.55.316h2.637l3.908 13.427h.096L71.1.316h2.637l.96 19.582h-2.159L71.82 5.35ZM55.706 18.08c-.448.765-.987 1.306-1.619 1.623-.63.317-1.354.475-2.17.475-.815 0-1.538-.158-2.17-.475-.63-.317-1.17-.858-1.618-1.623-.448-.764-.787-1.795-1.02-3.09-.23-1.297-.347-2.924-.347-4.882 0-1.958.116-3.586.348-4.882.232-1.296.571-2.326 1.019-3.09.448-.766.987-1.306 1.619-1.623.63-.317 1.354-.476 2.17-.476.815 0 1.538.159 2.17.476.63.317 1.17.857 1.618 1.622.448.765.787 1.795 1.019 3.091.232 1.296.348 2.924.348 4.882 0 1.958-.116 3.585-.348 4.881-.232 1.296-.571 2.327-1.019 3.091ZM54.663 5.967c-.168-1.082-.388-1.94-.66-2.574-.271-.634-.59-1.072-.959-1.315-.367-.242-.743-.364-1.127-.364-.383 0-.759.122-1.127.364-.367.243-.687.68-.959 1.315-.271.634-.491 1.492-.659 2.574-.168 1.081-.252 2.461-.252 4.14 0 1.678.084 3.058.252 4.14.168 1.082.388 1.94.66 2.573.271.634.59 1.073.959 1.315.367.243.743.364 1.127.364.383 0 .759-.121 1.126-.364.368-.242.688-.68.96-1.315.271-.634.491-1.492.659-2.573.168-1.082.252-2.462.252-4.14 0-1.679-.084-3.059-.252-4.14Zm-12.936 4.979h-5.035v8.952h-2.158V.316h2.158v8.672h5.035V.316h2.158v19.582h-2.158v-8.952Zm-11.389 8.952-2.997-8.393-2.997 8.393h-2.158l3.596-10.071L22.546.316h2.157l2.638 7.833L29.98.316h2.158L28.9 9.826l3.596 10.072h-2.158ZM12.715.316h8.152v1.958h-5.994v6.434h5.275v1.958h-5.275v7.273h5.994v1.959h-8.152V.316ZM6.96 19.898H4.802V2.274H.965V.316h9.831v1.958H6.96v17.624Z" fill="#fff"/></svg>