<svg width="16" height="17" viewBox="0 0 16 17" fill="none" xmlns="http://www.w3.org/2000/svg" role="img" aria-label="Иконка выхода."><path fill-rule="evenodd" clip-rule="evenodd" d="M8 16.386a8 8 0 1 1 0-16 8 8 0 0 1 0 16Zm5.382-4.273a6.545 6.545 0 1 0-10.763 0c.817-1.08 2.737-1.545 5.372-1.546-1.624-.004-2.9-1.148-2.9-3.636 0-1.632 1.148-2.91 2.909-2.91 1.756 0 2.91 1.398 2.91 3.055 0 2.381-1.292 3.487-2.9 3.491 2.634.001 4.554.466 5.372 1.546Zm-1.044 1.174c-.213-.765-1.742-1.265-4.338-1.265s-4.125.5-4.338 1.265A6.52 6.52 0 0 0 8 14.931a6.521 6.521 0 0 0 4.338-1.644ZM6.545 6.931c0 1.65.596 2.182 1.455 2.182.857 0 1.455-.51 1.455-2.037 0-.908-.57-1.6-1.455-1.6-.92 0-1.455.594-1.455 1.455Z" fill="#fff"/></svg>